<?xml version="1.0" encoding="utf-8"?>
<svg width="2480" height="1193" viewBox="0 0 2480 1193" version="1.1" xmlns="http://www.w3.org/2000/svg" xmlns:bx="https://boxy-svg.com"><defs><bx:export><bx:file format="svg"/></bx:export></defs><path d="M 1934 299 L 1934 378 1958 378 L 1982 378 1982 299 L 1982 220 1958 220 L 1934 220 1934 299 M 243.500 236.402 C 224.814 242.327, 211.971 259.685, 212.012 278.960 C 212.060 301.626, 230.249 321.182, 252.709 322.716 C 271.325 323.987, 287.567 314.748, 295.720 298.251 C 298.922 291.772, 299.447 289.682, 299.818 281.923 C 300.490 267.872, 296.938 257.711, 288.185 248.648 C 282.260 242.513, 277.734 239.606, 270.110 237.037 C 263.104 234.677, 249.932 234.363, 243.500 236.402 M 1271.281 342.250 C 1269.875 344.075, 1235.163 404.399, 1234.553 406.078 C 1234.268 406.860, 1242.513 422.125, 1252.874 440 L 1271.712 472.500 1310.106 472.740 L 1348.500 472.981 1367.250 440.526 C 1377.563 422.676, 1386 407.554, 1386 406.922 C 1386 406.290, 1377.566 391.199, 1367.258 373.386 L 1348.516 341 1310.380 341 C 1281.052 341, 1272.022 341.289, 1271.281 342.250 M 1934 598 L 1934 677 1958 677 L 1982 677 1982 598 L 1982 519 1958 519 L 1934 519 1934 598 M 1085 643.177 C 1074.825 660.855, 1066.500 676.048, 1066.500 676.939 C 1066.500 677.829, 1074.825 693.043, 1085 710.748 L 1103.500 742.937 1142 742.937 L 1180.500 742.937 1199 710.748 C 1209.175 693.043, 1217.500 677.829, 1217.500 676.939 C 1217.500 676.048, 1209.175 660.855, 1199 643.177 L 1180.500 611.033 1142 611.033 L 1103.500 611.033 1085 643.177 M 1420 643.239 C 1409.825 660.940, 1401.379 675.890, 1401.230 676.461 C 1401.082 677.032, 1409.408 692.125, 1419.733 710 L 1438.505 742.500 1477.003 742.749 L 1515.500 742.998 1534 710.877 C 1544.175 693.211, 1552.638 678.176, 1552.806 677.466 C 1552.975 676.757, 1544.653 661.512, 1534.314 643.588 L 1515.514 611 1477.007 611.028 L 1438.500 611.056 1420 643.239 M 449.105 660.583 C 417.153 669.175, 405.195 708.728, 427.298 732.708 C 444.569 751.445, 473.004 752.525, 490.689 735.117 C 500.645 725.317, 504.479 715.230, 503.808 700.606 C 503.451 692.829, 502.900 690.482, 500.038 684.528 C 490.841 665.399, 469.137 655.195, 449.105 660.583 M 1677.251 852.481 C 1666.226 855.585, 1658.730 860.661, 1652.311 869.371 C 1643.149 881.802, 1641.314 899.526, 1647.762 913.305 C 1663.987 947.976, 1711.979 948.050, 1728.180 913.429 C 1732.501 904.195, 1733.249 891.535, 1730.033 882.054 C 1725.552 868.844, 1715.923 858.755, 1703.225 853.966 C 1695.828 851.176, 1684.237 850.513, 1677.251 852.481 M 1183.121 893.127 C 1167.455 895.729, 1154.052 907.319, 1148.939 922.685 C 1147.156 928.041, 1146.844 930.888, 1147.169 938.843 C 1147.508 947.147, 1148.013 949.459, 1150.774 955.347 C 1158.990 972.863, 1178.944 983.471, 1197.647 980.268 C 1227.400 975.171, 1243.710 942.874, 1230.052 916.102 C 1224.388 904.999, 1210.429 895.087, 1197.500 892.986 C 1190.753 891.890, 1190.558 891.892, 1183.121 893.127" stroke="none" fill="#aa0000" fill-rule="evenodd"/><path d="M 1948.5 167.25 L 1948.5 199.5 L 1930.75 199.773 L 1913 200.046 L 1913 299.523 L 1913 399 L 1931 399 L 1949 399 L 1949 448.5 L 1949 498 L 1931 498 L 1913 498 L 1913 598 L 1913 698 L 1931 698 L 1949 698 L 1949 733.983 L 1949 769.966 L 1923.25 770.251 C 1909.088 770.407 1925.056 770.64 1958.737 770.768 L 1994 770 L 1969 770 L 1969 734 L 1969 698 L 1986 698 L 2003 698 L 2003 598 L 2003 498 L 1986 498 L 1969 498 L 1969 448.5 L 1969 399 L 1986 399 L 2003 399 L 2003 299.524 L 2003 200.048 L 1986.25 199.774 L 1969.5 199.5 L 1969.5 167.25 L 1969.5 134.999 L 1959 134.999 L 1948.5 134.999 L 1948.5 167.25 M 2019.488 293 C 2019.488 380.175 2019.606 415.837 2019.75 372.25 C 2019.894 328.662 2019.894 257.337 2019.75 213.75 C 2019.606 170.162 2019.488 205.825 2019.488 293 M 242.585 181.038 C 203.237 187.232 173.067 213.423 161.359 251.551 C 158.808 259.858 158.607 261.791 158.555 278.5 C 158.506 294.438 158.765 297.414 160.811 304.482 C 179.503 369.056 252.204 397.444 308.904 362.308 C 318.739 356.214 333.249 341.681 339.384 331.782 C 350.104 314.485 354.359 299.383 354.399 278.5 C 354.431 261.571 352.255 251.491 345.478 237.186 C 332.159 209.068 307.268 188.888 278 182.479 C 268.957 180.498 250.725 179.757 242.585 181.038 M 1934 299 L 1934 378 L 1958 378 L 1982 378 L 1982 299 L 1982 220 L 1958 220 L 1934 220 L 1934 299 M 243.5 236.402 C 224.814 242.327 211.971 259.685 212.012 278.96 C 212.06 301.626 230.249 321.182 252.709 322.716 C 271.325 323.987 287.567 314.748 295.72 298.251 C 298.922 291.772 299.447 289.682 299.818 281.923 C 300.49 267.872 296.938 257.711 288.185 248.648 C 282.26 242.513 277.734 239.606 270.11 237.037 C 263.104 234.677 249.932 234.363 243.5 236.402 M 1934 598 L 1934 677 L 1958 677 L 1982 677 L 1982 598 L 1982 519 L 1958 519 L 1934 519 L 1934 598 M 441.113 606.487 C 426.557 609.776 415.405 614.532 404.311 622.182 C 352.785 657.711 346.756 731.249 391.848 774.212 C 404.879 786.629 419.896 795.01 436.623 799.202 C 449.203 802.355 471.845 802.382 483.688 799.259 C 524.119 788.596 553.098 755.757 558.055 714.988 C 559.063 706.697 558.862 690.622 557.704 687 C 557.441 686.175 556.256 681.675 555.071 677 C 546.956 644.978 520.719 618.415 487.288 608.374 C 479.789 606.121 476.227 605.684 463 605.389 C 451.998 605.144 445.647 605.462 441.113 606.487 M 449.105 660.583 C 417.153 669.175 405.195 708.728 427.298 732.708 C 444.569 751.445 473.004 752.525 490.689 735.117 C 500.645 725.317 504.479 715.23 503.808 700.606 C 503.451 692.829 502.9 690.482 500.038 684.528 C 490.841 665.399 469.137 655.195 449.105 660.583 M 1669 798.524 C 1638.42 804.81 1613.69 823.729 1599.75 851.5 C 1577.52 895.789 1592.03 949.906 1633.551 977.558 C 1645.807 985.72 1665.033 993 1674.334 993 L 1677.349 993 L 1674.924 995.75 L 1672.5 998.5 L 1675 996.364 C 1677.192 994.49 1679.101 994.164 1690.5 993.717 C 1718.045 992.637 1740.186 982.931 1758.609 963.859 C 1779.389 942.346 1789.431 913.248 1785.999 884.486 C 1780.803 840.94 1748.983 806.633 1706.162 798.409 C 1697.113 796.671 1677.721 796.731 1669 798.524 M 1177.5 838.717 C 1175.85 838.947 1170.9 840.042 1166.5 841.151 C 1131.381 850.006 1103.52 878.072 1094.973 913.206 C 1090.307 932.386 1091.68 954.365 1098.682 972.614 C 1099.13 973.781 1099.5 975.022 1099.5 975.022 L 1103.497 982.634 C 1116.931 1008.218 1142.337 1027.301 1170.798 1033.185 C 1184.613 1036.041 1204.762 1035.361 1217.284 1031.616 C 1228.463 1028.273 1237.623 1024.116 1245.185 1018.954 C 1250.312 1015.454 1251.387 1015.065 1252.826 1016.191 C 1254.304 1017.347 1254.349 1017.307 1253.21 1015.85 C 1252.093 1014.42 1252.539 1013.693 1256.536 1010.417 C 1268.201 1000.858 1281.561 979.305 1285.987 962.903 C 1293.193 936.2 1288.52 906.112 1273.577 883.013 C 1255.418 854.942 1222.967 837.602 1189.619 838.15 C 1184.604 838.232 1179.15 838.487 1177.5 838.717 M 1677.251 852.481 C 1666.226 855.585 1658.73 860.661 1652.311 869.371 C 1643.149 881.802 1641.314 899.526 1647.762 913.305 C 1663.987 947.976 1711.979 948.05 1728.18 913.429 C 1732.501 904.195 1733.249 891.535 1730.033 882.054 C 1725.552 868.844 1715.923 858.755 1703.225 853.966 C 1695.828 851.176 1684.237 850.513 1677.251 852.481 M 1183.121 893.127 C 1167.455 895.729 1154.052 907.319 1148.939 922.685 C 1147.156 928.041 1146.844 930.888 1147.169 938.843 C 1147.508 947.147 1148.013 949.459 1150.774 955.347 C 1158.99 972.863 1178.944 983.471 1197.647 980.268 C 1227.4 975.171 1243.71 942.874 1230.052 916.102 C 1224.388 904.999 1210.429 895.087 1197.5 892.986 C 1190.753 891.89 1190.558 891.892 1183.121 893.127" stroke="none" fill="#c4c0b6" fill-rule="evenodd"/><path d="M 1898 452.483 L 1898 770 1923.500 770 L 1949 770 1949 734 L 1949 698 1931 698 L 1913 698 1913 598 L 1913 498 1931 498 L 1949 498 1949 448.500 L 1949 399 1931 399 L 1913 399 1913 299.523 L 1913 200.046 1930.750 199.773 L 1948.500 199.500 1948.500 167.500 L 1948.500 135.500 1923.250 135.233 L 1898 134.966 1898 452.483 M 1969.454 136.260 C 1969.188 136.953, 1969.090 151.465, 1969.235 168.510 L 1969.500 199.500 1986.250 199.774 L 2003 200.048 2003 299.524 L 2003 399 1986 399 L 1969 399 1969 448.500 L 1969 498 1986 498 L 2003 498 2003 598 L 2003 698 1986 698 L 1969 698 1969 734 L 1969 770 1994 770 L 2019 770 2019 701 C 2019 663.050, 2019.338 632.036, 2019.750 632.079 C 2020.162 632.123, 2049.525 663.173, 2085 701.079 L 2149.500 769.999 2234.984 770 L 2320.469 770 2308.908 758.250 C 2302.549 751.788, 2257.816 706.225, 2209.501 657 C 2161.186 607.775, 2115.445 561.200, 2107.855 553.500 L 2094.055 539.500 2154.679 477 C 2188.022 442.625, 2235.743 393.462, 2260.726 367.750 L 2306.149 321 2223.637 321 L 2141.125 321 2081.081 385.429 C 2048.057 420.866, 2020.579 450.142, 2020.019 450.488 C 2019.329 450.915, 2019 400.106, 2019 293.059 L 2019 135 1994.469 135 C 1975.665 135, 1969.824 135.294, 1969.454 136.260 M 383.722 158.034 C 350.896 160.789, 315.966 169.883, 292.356 181.822 L 286.818 184.622 293.659 187.494 C 328.788 202.239, 352.048 234.686, 354.655 272.580 L 355.279 281.660 363.942 279.410 C 377.729 275.829, 391.374 274.654, 411.500 275.315 C 440.124 276.254, 462.402 280.558, 483.171 289.160 C 493.386 293.391, 504.494 300.429, 542.256 326.596 L 556.013 336.128 555.756 262.472 L 555.500 188.816 545 182.939 C 521.073 169.548, 496.162 162.733, 457.500 159.001 C 442.304 157.535, 396.786 156.938, 383.722 158.034 M 1227.951 358.242 C 1212.956 384.234, 1200.495 405.855, 1200.260 406.289 C 1200.026 406.723, 1206.212 418.105, 1214.007 431.582 C 1221.802 445.060, 1227.943 456.630, 1227.653 457.294 C 1227.363 457.957, 1210.973 485.950, 1191.232 519.500 L 1155.337 580.500 1120.984 581 L 1086.631 581.500 1059.315 628.845 C 1044.292 654.885, 1032 676.528, 1032 676.940 C 1032 677.353, 1044.315 699.022, 1059.366 725.095 L 1086.731 772.500 1141.976 772.500 L 1197.222 772.500 1207.361 755.048 L 1217.500 737.596 1309.500 737.875 C 1360.100 738.029, 1401.800 738.458, 1402.166 738.827 C 1402.532 739.197, 1407.111 746.925, 1412.341 756 L 1421.850 772.500 1477.111 772.500 L 1532.372 772.500 1559.686 725.188 C 1574.709 699.166, 1586.975 677.341, 1586.945 676.688 C 1586.915 676.034, 1574.638 654.350, 1559.663 628.500 L 1532.436 581.500 1498.968 581.209 L 1465.500 580.919 1430 520.401 C 1410.475 487.116, 1394.092 458.830, 1393.592 457.542 C 1392.821 455.552, 1394.728 451.677, 1406.342 431.645 C 1413.854 418.688, 1419.984 407.506, 1419.965 406.794 C 1419.946 406.082, 1407.677 384.350, 1392.700 358.500 L 1365.471 311.500 1310.343 311.242 L 1255.216 310.983 1227.951 358.242 M 821 313.117 C 794.371 315.784, 764.517 325.652, 744.670 338.348 C 741.530 340.357, 738.745 342, 738.481 342 C 738.216 342, 738 337.275, 738 331.500 L 738 321 677.500 321 L 617 321 617 635 L 617 949 677.500 949 L 738 949 738 852.917 C 738 800.071, 738.337 756.990, 738.750 757.182 C 739.163 757.374, 744.675 760.075, 751 763.184 C 773.954 774.466, 795.595 779.147, 825 779.190 C 860.643 779.242, 886.953 773.527, 915.500 759.533 C 974.623 730.551, 1015.439 670.591, 1027.932 594.369 C 1031.449 572.905, 1032.401 559.900, 1032.349 534 C 1032.276 497.634, 1028.682 471.761, 1019.889 444.311 C 997.907 375.688, 947.607 328.414, 883.500 316.127 C 862.729 312.146, 841.097 311.104, 821 313.117 M 1778 315.058 C 1761.344 317.127, 1744.856 322.775, 1730.218 331.424 L 1721 336.871 1721 328.936 L 1721 321 1660.500 321 L 1600 321 1600 545.500 L 1600 770 1660.500 770 L 1721 770 1721 650.174 C 1721 527.352, 1721.259 517.643, 1725.020 499.317 C 1730.186 474.154, 1741.725 452.703, 1756.528 440.744 C 1765.613 433.405, 1771.223 431.596, 1785 431.562 C 1803.206 431.518, 1803.766 431.783, 1834.595 455.016 L 1861.013 474.924 1860.756 401.823 L 1860.500 328.722 1846 323.471 C 1837.694 320.462, 1827.442 317.545, 1822 316.642 C 1809.972 314.645, 1787.763 313.846, 1778 315.058 M 1271.281 342.250 C 1269.875 344.075, 1235.163 404.399, 1234.553 406.078 C 1234.268 406.860, 1242.513 422.125, 1252.874 440 L 1271.712 472.500 1310.106 472.740 L 1348.500 472.981 1367.250 440.526 C 1377.563 422.676, 1386 407.554, 1386 406.922 C 1386 406.290, 1377.566 391.199, 1367.258 373.386 L 1348.516 341 1310.380 341 C 1281.052 341, 1272.022 341.289, 1271.281 342.250 M 315.488 357.692 C 304.101 366.385, 288.457 373.283, 273.680 376.126 C 262.867 378.207, 243.921 377.521, 232.794 374.646 C 221.337 371.685, 208.419 365.846, 199.439 359.568 L 192.985 355.057 193.622 359.278 C 195.026 368.582, 199.981 386.124, 203.760 395.167 C 211.716 414.210, 222.010 428.978, 238.180 444.550 C 262.809 468.267, 291.136 486.709, 352.500 518.975 C 388.929 538.129, 415.048 552.605, 423.469 558.307 C 440.282 569.691, 451.651 585.347, 453.561 599.747 L 454.223 604.739 466.361 605.265 C 508.121 607.077, 545.094 637.246, 555.369 677.893 C 556.635 682.905, 557.901 687.234, 558.180 687.513 C 558.958 688.292, 567.437 669.505, 570.372 660.500 C 578.950 634.181, 581.139 600.367, 575.993 573.699 C 570.289 544.143, 554.629 514.349, 532.757 491.441 C 506.410 463.845, 472.758 441.572, 408.500 409.197 C 359.611 384.565, 333.931 368.171, 325.063 355.929 L 322.476 352.357 315.488 357.692 M 812.125 425.448 C 794.739 428.756, 782.360 434.945, 770.302 446.359 C 757.053 458.901, 749.044 471.597, 743.706 488.524 C 739.063 503.247, 738.499 510.397, 738.508 554.500 C 738.515 593.776, 738.611 595.878, 740.781 604.500 C 746.626 627.712, 762.167 648.037, 782 658.405 C 793.309 664.317, 800.938 666.183, 816.090 666.743 C 831.666 667.320, 842.022 665.728, 853.218 661.036 C 883.533 648.333, 903.559 613.159, 909.036 563 C 910.960 545.375, 910.477 515.484, 908.042 501.512 C 903.602 476.040, 895.985 460.098, 881 444.920 C 870.784 434.572, 863.105 429.940, 850.500 426.524 C 842.130 424.256, 821.442 423.676, 812.125 425.448 M 1272.807 503.750 C 1270.689 506.216, 1212 604.847, 1212 605.941 C 1212 606.435, 1220.840 622.176, 1231.643 640.920 L 1251.287 675 1309.549 675 L 1367.812 675 1387.906 640.163 C 1398.958 621.003, 1408 604.987, 1408 604.573 C 1408 603.862, 1354.572 513.773, 1349.393 505.750 L 1346.972 502 1310.641 502 C 1277.279 502, 1274.187 502.143, 1272.807 503.750 M 191 655.246 L 191 733.802 201.829 740.801 C 214.922 749.261, 221.497 752.630, 234.107 757.339 C 254.603 764.991, 289.707 773.013, 320.500 777.079 C 337.640 779.343, 369.350 780.066, 386.322 778.581 L 395.143 777.809 388.753 771.154 C 362.414 743.727, 354.235 702.922, 368.052 667.868 C 369.123 665.150, 370 662.718, 370 662.463 C 370 662.208, 366.512 661.991, 362.250 661.980 C 330.713 661.901, 280.921 647.367, 255.327 630.769 C 250.031 627.335, 222.047 603.835, 192.750 578.220 C 191.085 576.765, 191 580.515, 191 655.246 M 1085 643.177 C 1074.825 660.855, 1066.500 676.048, 1066.500 676.939 C 1066.500 677.829, 1074.825 693.043, 1085 710.748 L 1103.500 742.937 1142 742.937 L 1180.500 742.937 1199 710.748 C 1209.175 693.043, 1217.500 677.829, 1217.500 676.939 C 1217.500 676.048, 1209.175 660.855, 1199 643.177 L 1180.500 611.033 1142 611.033 L 1103.500 611.033 1085 643.177 M 1420 643.239 C 1409.825 660.940, 1401.379 675.890, 1401.230 676.461 C 1401.082 677.032, 1409.408 692.125, 1419.733 710 L 1438.505 742.500 1477.003 742.749 L 1515.500 742.998 1534 710.877 C 1544.175 693.211, 1552.638 678.176, 1552.806 677.466 C 1552.975 676.757, 1544.653 661.512, 1534.314 643.588 L 1515.514 611 1477.007 611.028 L 1438.500 611.056 1420 643.239 M 1760.769 828.750 C 1768.021 837.018, 1771.680 842.394, 1776.250 851.500 C 1786.184 871.291, 1789.174 894.809, 1784.427 915.812 C 1783.642 919.284, 1783 922.546, 1783 923.062 C 1783 923.626, 1795.556 924, 1814.500 924 L 1846 924 1846 974.500 L 1846 1025 1862 1025 L 1878 1025 1878 974.500 L 1878 924 2103.500 924 L 2329 924 2329 873 L 2329 822 2041.924 822 L 1754.849 822 1760.769 828.750 M 970.250 872.750 L 832 873.007 832 923.504 L 832 974 965.607 974 C 1078.912 974, 1099.133 973.790, 1098.683 972.617 C 1089.678 949.149, 1090.169 920.942, 1099.985 897.875 C 1101.633 894.004, 1105.572 886.936, 1108.739 882.168 C 1115.974 871.278, 1115.763 871.956, 1111.833 872.246 C 1110 872.382, 1046.287 872.609, 970.250 872.750 M 1287.454 916.617 C 1289.045 922.841, 1289.741 936.959, 1288.899 945.944 C 1286.698 969.447, 1276.751 990.346, 1259.749 1007.188 L 1251.977 1014.888 1275.738 1032.930 L 1299.500 1050.973 1317.500 1050.973 C 1327.400 1050.973, 1398.208 1050.524, 1474.850 1049.975 L 1614.200 1048.978 1645.795 1021.297 L 1677.390 993.615 1670.286 992.418 C 1640.318 987.369, 1613.270 966.893, 1599.381 938.741 C 1597.275 934.474, 1595.219 931.099, 1594.811 931.241 C 1594.403 931.384, 1589.863 935.165, 1584.722 939.644 L 1575.376 947.787 1454.438 948.519 L 1333.500 949.251 1310.108 931.493 C 1289.689 915.991, 1286.810 914.101, 1287.454 916.617 M 1940 928.051 C 1926.751 929.570, 1916.248 934.866, 1906.761 944.812 C 1897.848 954.156, 1894 964.062, 1894 977.661 C 1894 992.701, 1898.058 1003.233, 1907.428 1012.514 C 1918.600 1023.579, 1931.023 1027.530, 1952 1026.689 C 1966.036 1026.126, 1973.499 1024.451, 1983 1019.730 L 1989.500 1016.500 1990 1002 L 1990.500 987.500 1993.750 987.187 L 1997 986.873 1997 976.147 C 1997 963.531, 1995.247 955.726, 1990.708 948.137 C 1981.778 933.206, 1962.307 925.494, 1940 928.051 M 2041 928.030 C 2030.880 929.043, 2024.952 930.628, 2015.750 934.781 L 2008 938.278 2008 953.639 C 2008 962.088, 2008.229 969, 2008.509 969 C 2008.788 969, 2013.212 966.136, 2018.339 962.635 C 2030.235 954.513, 2037.197 951.849, 2047.040 951.651 C 2055.549 951.481, 2059.512 953.206, 2060.604 957.559 C 2060.954 958.953, 2061.074 960.253, 2060.870 960.448 C 2060.667 960.643, 2054.200 961.553, 2046.500 962.470 C 2025.562 964.964, 2017.118 967.570, 2008.904 974.076 C 1999.486 981.535, 1996.140 995.768, 2000.882 1008.198 C 2003.739 1015.687, 2013.401 1022.603, 2025.265 1025.651 C 2033.530 1027.774, 2049.320 1027.048, 2056.750 1024.203 C 2060.969 1022.587, 2062 1022.468, 2062 1023.596 C 2062 1024.743, 2064.931 1025, 2078 1025 L 2094 1025 2094 993.684 C 2094 975.365, 2093.548 959.921, 2092.911 956.474 C 2090.676 944.384, 2083.162 935.075, 2072.385 931.043 C 2068.040 929.417, 2051.098 926.596, 2049 927.148 C 2048.725 927.220, 2045.125 927.618, 2041 928.030 M 2155.966 928.067 C 2152.372 928.467, 2147.704 929.515, 2145.593 930.397 C 2140.829 932.387, 2140 932.399, 2140 930.475 C 2140 929.160, 2137.820 928.987, 2124.250 929.225 L 2108.500 929.500 2108.240 977.250 L 2107.981 1025 2123.990 1025 L 2140 1025 2140.022 995.250 C 2140.046 962.160, 2140.374 960.229, 2146.887 954.748 C 2155.020 947.905, 2168.310 951.253, 2170.965 960.814 C 2171.559 962.952, 2171.991 977.203, 2171.994 994.750 L 2172 1025 2187.433 1025 L 2202.866 1025 2203.183 995.169 L 2203.500 965.338 2206.512 960.419 C 2210.488 953.924, 2216.527 950.646, 2223.174 951.375 C 2234.585 952.627, 2235 954.104, 2235 993.520 L 2235 1025 2251 1025 L 2267 1025 2267 993.447 C 2267 957.846, 2266.198 951.489, 2260.667 943.273 C 2253.593 932.761, 2242.425 927.870, 2225.500 927.870 C 2213.976 927.870, 2205.251 930.126, 2198 934.979 C 2192.819 938.447, 2191.762 938.625, 2189.872 936.342 C 2189.118 935.430, 2185.831 933.420, 2182.568 931.876 C 2177.296 929.380, 2174.735 928.762, 2165 927.632 C 2163.625 927.472, 2159.560 927.668, 2155.966 928.067 M 1942.358 951.954 C 1936.692 953.305, 1929 959.357, 1929 962.465 C 1929 962.759, 1936.875 963, 1946.500 963 C 1966.077 963, 1966.435 962.843, 1961.001 956.654 C 1956.833 951.907, 1949.893 950.157, 1942.358 951.954 M 2049.772 985.516 C 2036.798 987.086, 2031.641 989.264, 2031.172 993.371 C 2030.358 1000.497, 2033.324 1003, 2042.587 1003 C 2050.997 1003, 2058.369 998.453, 2060.933 991.685 C 2062.164 988.438, 2062.351 983.949, 2061.250 984.108 C 2060.838 984.168, 2055.672 984.801, 2049.772 985.516 M 1927 988.114 C 1927 990.492, 1931.264 996.642, 1934.405 998.794 C 1939.002 1001.944, 1943.332 1003, 1951.654 1003 C 1961.328 1003, 1969.028 1000.423, 1979.952 993.531 C 1984.928 990.390, 1989 987.636, 1989 987.411 C 1989 987.185, 1975.050 987, 1958 987 C 1935.888 987, 1927 987.319, 1927 988.114" fill="#040484" fill-rule="evenodd" style="paint-order: stroke; stroke-width: 3px; stroke-linecap: round; stroke-linejoin: round;"/><path d="M 1899.5 768.5 L 1947.5 768.5 L 1947.5 699.5 L 1913 699.5 C 1912.172 699.5 1911.5 698.828 1911.5 698 L 1911.5 498 C 1911.5 497.172 1912.172 496.5 1913 496.5 L 1947.5 496.5 L 1947.5 400.5 L 1913 400.5 C 1912.172 400.5 1911.5 399.828 1911.5 399 L 1911.5 200.046 C 1911.5 199.227 1912.158 198.559 1912.977 198.546 L 1947 198.023 L 1947 136.984 L 1899.5 136.482 C 1899.5 136.482 1899.5 452.471 1899.5 452.483 L 1899.5 452.483 C 1899.5 453.311 1898.828 453.983 1898 453.983 C 1897.172 453.983 1896.5 453.311 1896.5 452.483 C 1896.5 452.483 1896.5 452.483 1896.5 452.483 C 1896.5 452.483 1896.5 452.483 1896.5 452.483 C 1896.5 452.483 1896.5 452.483 1896.5 452.483 C 1896.5 452.483 1896.5 452.483 1896.5 452.483 C 1896.5 452.483 1896.5 452.483 1896.5 452.483 C 1896.5 452.483 1896.5 452.483 1896.5 452.483 C 1896.5 452.483 1896.5 452.483 1896.5 452.483 C 1896.5 452.483 1896.5 452.483 1896.5 452.483 C 1896.5 452.483 1896.5 452.483 1896.5 452.483 C 1896.5 452.483 1896.5 452.483 1896.5 452.483 C 1896.5 452.483 1896.5 452.483 1896.5 452.483 C 1896.5 452.483 1896.5 452.483 1896.5 452.483 C 1896.5 452.483 1896.5 452.483 1896.5 452.483 C 1896.5 452.483 1896.5 452.483 1896.5 452.483 C 1896.5 452.483 1896.5 452.483 1896.5 452.483 L 1896.5 452.483 C 1896.5 451.655 1897.172 450.983 1898 450.983 C 1898.828 450.983 1899.5 451.655 1899.5 452.483 C 1899.5 452.483 1899.5 452.483 1899.5 452.483 Z M 1896.5 452.483 C 1896.5 452.483 1896.5 452.483 1896.5 452.483 C 1896.5 452.483 1896.5 452.483 1896.5 452.483 C 1896.5 452.483 1896.5 452.483 1896.5 452.483 C 1896.5 452.483 1896.5 452.483 1896.5 452.483 C 1896.5 452.483 1896.5 452.483 1896.5 452.483 C 1896.5 452.483 1896.5 452.483 1896.5 452.483 C 1896.5 452.483 1896.5 452.483 1896.5 452.483 C 1896.5 452.483 1896.5 452.483 1896.5 452.483 C 1896.5 452.483 1896.5 452.483 1896.5 452.483 C 1896.5 452.483 1896.5 452.483 1896.5 452.483 C 1896.5 452.483 1896.5 452.483 1896.5 452.483 C 1896.5 452.483 1896.5 452.483 1896.5 452.483 C 1896.5 452.483 1896.5 452.483 1896.5 452.483 C 1896.5 452.483 1896.5 452.483 1896.5 452.483 L 1896.5 134.966 C 1896.5 134.565 1896.66 134.181 1896.945 133.9 C 1897.23 133.618 1897.615 133.462 1898.016 133.466 L 1948.516 134 C 1949.338 134.009 1950 134.678 1950 135.5 L 1950 199.5 C 1950 200.319 1949.342 200.987 1948.523 201 L 1914.5 201.523 L 1914.5 397.5 L 1949 397.5 C 1949.828 397.5 1950.5 398.172 1950.5 399 L 1950.5 498 C 1950.5 498.828 1949.828 499.5 1949 499.5 L 1914.5 499.5 L 1914.5 696.5 L 1949 696.5 C 1949.828 696.5 1950.5 697.172 1950.5 698 L 1950.5 770 C 1950.5 770.828 1949.828 771.5 1949 771.5 L 1898 771.5 C 1897.172 771.5 1896.5 770.828 1896.5 770 C 1896.5 770 1896.5 452.502 1896.5 452.483 C 1896.5 452.483 1896.5 452.483 1896.5 452.483 Z M 1967.954 136.284 C 1967.952 136.188 1967.96 136.09 1967.978 135.993 C 1968.079 135.426 1968.501 134.968 1969.051 134.815 C 1969.506 134.519 1970.045 134.282 1970.605 134.18 C 1971.562 134.005 1973.012 133.868 1974.973 133.77 C 1978.859 133.574 1985.058 133.5 1994.469 133.5 L 2019 133.5 C 2019.828 133.5 2020.5 134.172 2020.5 135 L 2020.5 293.059 C 2020.5 346.581 2020.582 386.04 2020.751 412.067 C 2020.835 425.078 2020.941 434.724 2021.068 441.093 C 2021.12 443.648 2021.174 445.665 2021.232 447.16 C 2028.133 439.923 2052.014 414.419 2079.984 384.406 L 2140.028 319.977 C 2140.311 319.673 2140.709 319.5 2141.125 319.5 L 2306.149 319.5 C 2306.752 319.5 2307.296 319.861 2307.531 320.416 C 2307.765 320.971 2307.645 321.613 2307.225 322.045 L 2261.802 368.795 C 2236.819 394.507 2189.098 443.67 2155.756 478.044 L 2096.153 539.492 L 2108.923 552.447 C 2116.514 560.148 2162.256 606.724 2210.571 655.949 C 2258.886 705.174 2303.619 750.737 2309.977 757.198 L 2321.538 768.948 C 2321.962 769.379 2322.086 770.022 2321.852 770.58 C 2321.619 771.137 2321.073 771.5 2320.469 771.5 L 2234.984 771.5 L 2149.5 771.499 C 2149.085 771.499 2148.688 771.327 2148.405 771.024 L 2083.905 702.104 C 2053.111 669.2 2027.277 641.637 2021.033 635.06 C 2021.007 635.762 2020.983 636.587 2020.959 637.532 C 2020.869 641.019 2020.788 646.066 2020.72 652.308 C 2020.584 664.796 2020.5 682.029 2020.5 701 L 2020.5 770 C 2020.5 770.828 2019.828 771.5 2019 771.5 L 1969 771.5 C 1968.172 771.5 1967.5 770.828 1967.5 770 L 1967.5 698 C 1967.5 697.172 1968.172 696.5 1969 696.5 L 2001.5 696.5 L 2001.5 499.5 L 1969 499.5 C 1968.172 499.5 1967.5 498.828 1967.5 498 L 1967.5 399 C 1967.5 398.172 1968.172 397.5 1969 397.5 L 2001.5 397.5 L 2001.5 201.524 L 1969.475 201 C 1968.662 200.987 1968.007 200.327 1968 199.513 L 1967.735 168.523 C 1967.592 151.733 1967.943 136.748 1967.954 136.284 Z M 2019.596 633.571 C 2019.595 633.57 2019.594 633.57 2019.594 633.571 C 2019.595 633.571 2019.595 633.571 2019.596 633.571 Z M 1970.934 137.16 C 1970.859 140.682 1970.611 153.925 1970.735 168.497 L 1970.987 198.024 L 2003.025 198.548 C 2003.843 198.562 2004.5 199.229 2004.5 200.048 L 2004.5 399 C 2004.5 399.828 2003.828 400.5 2003 400.5 L 1970.5 400.5 L 1970.5 496.5 L 2003 496.5 C 2003.828 496.5 2004.5 497.172 2004.5 498 L 2004.5 698 C 2004.5 698.828 2003.828 699.5 2003 699.5 L 1970.5 699.5 L 1970.5 768.5 L 2017.5 768.5 L 2017.5 701 C 2017.5 682.021 2017.585 664.772 2017.721 652.276 C 2017.789 646.026 2017.87 640.956 2017.959 637.455 C 2018.004 635.701 2018.052 634.324 2018.102 633.392 C 2018.127 632.92 2018.154 632.53 2018.182 632.269 C 2018.198 632.125 2018.222 631.958 2018.246 631.847 C 2018.263 631.766 2018.313 631.597 2018.36 631.49 C 2018.401 631.399 2018.534 631.178 2018.643 631.061 C 2018.831 630.86 2019.497 630.658 2019.906 630.587 C 2020.783 630.862 2050.618 662.145 2086.095 700.054 L 2150.151 768.499 L 2234.984 768.5 L 2316.889 768.5 L 2307.839 759.302 C 2301.479 752.839 2256.746 707.276 2208.43 658.051 C 2160.116 608.826 2114.376 562.252 2106.787 554.553 L 2092.987 540.553 C 2092.414 539.972 2092.411 539.041 2092.978 538.456 L 2153.602 475.956 C 2186.945 441.58 2234.667 392.417 2259.65 366.705 L 2302.6 322.5 L 2141.777 322.5 L 2082.178 386.452 C 2049.153 421.891 2021.54 451.272 2020.808 451.764 C 2020.437 451.879 2019.627 451.992 2019.284 451.805 C 2019.053 451.679 2018.767 451.358 2018.688 451.221 C 2018.604 451.076 2018.523 450.839 2018.497 450.728 C 2018.461 450.578 2018.426 450.345 2018.402 450.127 C 2018.359 449.722 2018.317 449.102 2018.279 448.309 C 2018.203 446.737 2018.133 444.348 2018.069 441.153 C 2017.941 434.771 2017.835 425.104 2017.751 412.086 C 2017.582 386.053 2017.5 346.584 2017.5 293.059 L 2017.5 136.5 L 1994.469 136.5 C 1985.076 136.5 1978.952 136.573 1975.124 136.766 C 1973.228 136.861 1971.974 136.979 1971.144 137.131 C 1971.064 137.146 1970.994 137.155 1970.934 137.16 Z M 383.579 156.541 C 383.582 156.541 383.585 156.54 383.588 156.54 C 383.592 156.54 383.596 156.539 383.6 156.539 C 396.741 155.441 442.387 156.039 457.644 157.508 C 496.432 161.263 521.637 168.17 545.733 181.63 L 556.233 187.507 C 556.705 187.771 556.998 188.27 557 188.811 L 557.256 262.467 L 557.513 336.123 C 557.515 336.682 557.206 337.195 556.711 337.456 C 556.217 337.716 555.618 337.679 555.159 337.361 L 541.402 327.829 C 503.665 301.679 492.698 294.717 482.597 290.546 C 461.973 281.987 439.957 277.74 411.451 276.814 C 391.414 276.151 377.982 277.302 364.319 280.862 L 355.656 283.112 C 355.224 283.224 354.765 283.138 354.403 282.877 C 354.04 282.617 353.813 282.208 353.783 281.763 L 353.159 272.683 C 350.69 235.174 327.888 203.367 293.078 188.877 L 286.237 186.005 C 285.698 185.779 285.34 185.259 285.319 184.675 C 285.298 184.09 285.619 183.547 286.141 183.283 L 291.679 180.483 C 303.569 174.477 318.353 169.16 334.205 165.032 C 342.129 162.969 350.372 161.188 358.662 159.756 C 362.808 159.04 366.989 158.408 371.148 157.87 C 373.227 157.601 375.313 157.354 377.386 157.133 C 378.423 157.022 379.462 156.916 380.496 156.818 C 381.523 156.719 383.554 156.543 383.579 156.541 Z M 383.839 159.529 C 383.6 159.55 381.74 159.712 380.781 159.804 C 379.756 159.902 378.733 160.006 377.705 160.115 C 375.649 160.335 373.595 160.578 371.532 160.845 C 367.405 161.379 363.288 162.002 359.173 162.712 C 350.944 164.134 342.824 165.888 334.961 167.936 C 319.239 172.029 304.753 177.228 293.033 183.161 L 290.392 184.496 L 294.24 186.111 C 329.688 201.111 353.406 234.198 356.151 272.477 L 356.652 279.754 L 363.565 277.958 C 377.476 274.356 391.334 273.157 411.549 273.816 C 440.291 274.768 462.831 279.129 483.745 287.774 C 494.074 292.065 505.323 299.179 543.11 325.363 L 554.503 333.257 L 554.256 262.477 L 554.003 189.697 L 544.267 184.248 C 520.509 170.926 495.892 164.203 457.356 160.494 C 442.222 159.031 396.839 158.435 383.847 159.529 C 383.845 159.529 383.842 159.529 383.839 159.529 Z M 1226.652 357.492 C 1226.652 357.492 1226.652 357.492 1226.652 357.492 L 1253.917 310.233 C 1254.186 309.767 1254.684 309.48 1255.223 309.483 L 1310.35 309.742 L 1365.478 310 C 1366.011 310.003 1366.502 310.287 1366.769 310.748 L 1393.998 357.748 C 1408.979 383.605 1421.436 405.691 1421.464 406.754 C 1421.494 407.844 1415.161 419.425 1407.64 432.397 C 1396.05 452.384 1394.193 455.612 1394.991 457 C 1395.441 458.184 1411.771 486.361 1431.294 519.642 L 1466.363 579.426 L 1498.981 579.709 L 1532.449 580 C 1532.979 580.005 1533.468 580.289 1533.734 580.748 L 1560.961 627.748 C 1575.94 653.605 1588.316 675.629 1588.443 676.619 C 1588.378 677.675 1576.012 699.908 1560.985 725.938 L 1533.671 773.25 C 1533.403 773.714 1532.908 774 1532.372 774 L 1421.85 774 C 1421.314 774 1420.818 773.714 1420.55 773.249 L 1411.041 756.749 C 1405.816 747.682 1401.371 740.136 1401.101 739.883 C 1401.26 739.736 1360.09 739.529 1309.495 739.375 L 1218.362 739.099 L 1198.519 773.254 C 1198.251 773.716 1197.756 774 1197.222 774 L 1086.731 774 C 1086.195 774 1085.7 773.714 1085.432 773.25 L 1058.067 725.845 C 1043.013 699.768 1030.5 677.724 1030.5 676.94 C 1030.5 676.158 1042.99 654.14 1058.016 628.095 L 1085.332 580.75 C 1085.596 580.293 1086.081 580.008 1086.609 580 L 1154.472 579.012 L 1189.939 518.739 C 1209.679 485.191 1226.015 457.301 1226.278 456.694 C 1226.593 456.681 1220.49 445.787 1212.709 432.333 C 1208.807 425.587 1205.302 419.355 1202.805 414.761 C 1200.302 410.156 1198.814 406.485 1198.941 405.575 C 1199.068 405.341 1202.252 399.81 1207.271 391.101 C 1209.78 386.746 1212.751 381.593 1216.032 375.904 C 1217.672 373.06 1219.39 370.081 1221.166 367.002 C 1222.054 365.462 1222.957 363.897 1223.872 362.311 C 1224.33 361.518 1224.79 360.719 1225.254 359.916 C 1225.717 359.113 1226.652 357.492 1226.652 357.492 C 1226.652 357.492 1226.652 357.492 1226.652 357.492 Z M 1229.25 358.992 C 1229.245 359.001 1228.314 360.614 1227.852 361.415 C 1227.389 362.218 1226.928 363.017 1226.471 363.81 C 1225.556 365.396 1224.653 366.961 1223.765 368.501 C 1221.989 371.58 1220.271 374.559 1218.631 377.403 C 1215.35 383.092 1212.38 388.245 1209.87 392.599 C 1204.851 401.307 1201.719 406.747 1201.611 406.947 C 1201.849 407.103 1202.96 408.764 1205.441 413.328 C 1207.927 417.903 1211.412 424.1 1215.305 430.831 C 1223.114 444.333 1229.293 456.579 1229.028 457.894 C 1228.698 458.636 1212.267 486.709 1192.525 520.261 L 1156.63 581.261 C 1156.364 581.712 1155.882 581.992 1155.359 582 L 1087.505 582.987 L 1060.614 629.595 C 1045.594 655.63 1033.5 676.898 1033.5 676.94 C 1033.5 676.982 1045.617 698.276 1060.665 724.345 L 1087.597 771 L 1196.359 771 L 1216.203 736.842 C 1216.472 736.379 1216.968 736.094 1217.505 736.096 L 1309.505 736.375 C 1360.11 736.529 1402.34 737.18 1403.231 737.771 C 1403.709 738.286 1408.406 746.168 1413.641 755.251 L 1422.717 771 L 1531.506 771 L 1558.387 724.438 C 1573.406 698.424 1585.572 677.008 1585.447 676.757 C 1585.513 676.438 1573.336 655.095 1558.365 629.252 L 1531.567 582.992 L 1498.955 582.709 L 1465.487 582.419 C 1464.959 582.414 1464.473 582.133 1464.206 581.678 L 1428.706 521.16 C 1409.179 487.871 1392.744 459.477 1392.194 458.085 C 1391.449 455.493 1393.406 450.97 1405.044 430.893 C 1412.548 417.951 1418.474 407.168 1418.466 406.834 C 1418.456 406.473 1406.375 385.095 1391.402 359.252 L 1364.604 312.996 L 1310.336 312.742 L 1256.08 312.487 Z M 820.804 311.63 C 820.812 311.629 820.819 311.628 820.827 311.627 C 820.838 311.626 820.848 311.625 820.859 311.624 C 841.064 309.609 862.909 310.661 883.782 314.654 C 948.262 327.131 999.135 374.913 1021.318 443.853 C 1030.139 471.429 1033.769 497.529 1033.849 533.997 C 1033.899 559.953 1032.937 573.081 1029.412 594.612 C 1016.799 671.134 975.573 731.646 916.16 760.88 C 887.442 774.933 860.801 780.725 824.998 780.69 C 795.435 780.63 773.465 775.872 750.338 764.53 C 746.139 762.466 742.304 760.585 740.085 759.499 C 740.041 760.737 739.999 762.468 739.958 764.656 C 739.869 769.488 739.788 776.499 739.72 785.172 C 739.584 802.521 739.5 826.497 739.5 852.917 L 739.5 949 C 739.5 949.828 738.828 950.5 738 950.5 L 617 950.5 C 616.172 950.5 615.5 949.828 615.5 949 L 615.5 321 C 615.5 320.172 616.172 319.5 617 319.5 L 738 319.5 C 738.828 319.5 739.5 320.172 739.5 321 L 739.5 331.5 C 739.5 334.372 739.553 336.963 739.64 338.847 C 739.654 339.159 739.669 339.447 739.684 339.711 C 740.66 339.102 742.15 338.18 743.862 337.084 C 753.879 330.685 766.472 324.96 779.821 320.547 C 786.494 318.342 793.418 316.441 800.31 314.934 C 803.756 314.18 807.225 313.519 810.65 312.965 C 812.362 312.689 814.079 312.437 815.777 312.213 C 817.461 311.992 820.752 311.635 820.804 311.63 Z M 821.128 314.612 C 820.646 314.664 817.703 314.986 816.168 315.188 C 814.493 315.408 812.819 315.654 811.128 315.927 C 807.745 316.473 804.358 317.12 800.951 317.864 C 794.136 319.355 787.363 321.214 780.763 323.396 C 767.566 327.758 755.308 333.315 745.478 339.612 C 742.315 341.635 739.126 343.5 738.481 343.5 C 738.106 343.5 737.51 343.177 737.34 342.988 C 737.235 342.872 737.107 342.657 737.063 342.559 C 737.006 342.432 736.947 342.233 736.92 342.112 C 736.877 341.917 736.834 341.627 736.803 341.332 C 736.742 340.769 736.687 339.952 736.643 338.984 C 736.555 337.062 736.5 334.403 736.5 331.5 L 736.5 322.5 L 618.5 322.5 L 618.5 947.5 L 736.5 947.5 L 736.5 852.917 C 736.5 826.491 736.584 802.504 736.72 785.149 C 736.788 776.47 736.869 769.443 736.959 764.6 C 737.004 762.177 737.051 760.288 737.1 759.015 C 737.125 758.374 737.151 757.865 737.178 757.527 C 737.192 757.347 737.212 757.166 737.231 757.046 C 737.245 756.964 737.281 756.804 737.318 756.701 C 737.352 756.605 737.48 756.351 737.6 756.211 C 737.704 756.089 738.027 755.844 738.246 755.767 C 738.52 755.671 739.129 755.704 739.382 755.822 C 739.809 756.02 745.336 758.728 751.662 761.838 C 774.443 773.06 795.755 777.664 825.002 777.69 C 860.485 777.759 886.464 772.121 914.84 758.186 C 973.673 729.456 1014.079 670.048 1026.452 594.126 C 1029.961 572.729 1030.903 559.847 1030.849 534.003 C 1030.783 497.739 1027.225 472.093 1018.461 444.769 C 996.679 376.463 946.952 329.697 883.218 317.6 C 862.552 313.632 841.136 312.599 821.149 314.61 C 821.142 314.61 821.135 314.611 821.128 314.612 Z M 1777.775 313.575 C 1777.782 313.574 1777.789 313.573 1777.795 313.572 C 1777.805 313.571 1777.814 313.57 1777.824 313.568 C 1787.71 312.353 1810.125 313.156 1822.246 315.162 C 1827.77 316.084 1838.155 319.035 1846.511 322.061 L 1861.011 327.312 C 1861.603 327.526 1861.998 328.087 1862 328.717 L 1862.256 401.818 L 1862.513 474.919 C 1862.515 475.488 1862.194 476.01 1861.685 476.265 C 1861.175 476.52 1860.565 476.465 1860.11 476.122 L 1833.692 456.214 C 1802.994 433.06 1802.887 432.946 1785.004 433.062 C 1771.455 433.06 1766.315 434.702 1757.471 441.911 C 1742.857 453.642 1731.581 474.66 1726.489 499.619 C 1722.743 517.814 1722.5 527.372 1722.5 650.174 L 1722.5 770 C 1722.5 770.828 1721.828 771.5 1721 771.5 L 1600 771.5 C 1599.172 771.5 1598.5 770.828 1598.5 770 L 1598.5 321 C 1598.5 320.172 1599.172 319.5 1600 319.5 L 1721 319.5 C 1721.828 319.5 1722.5 320.172 1722.5 321 L 1722.5 334.242 L 1729.455 330.133 C 1736.842 325.772 1744.761 322.131 1752.866 319.354 C 1756.919 317.966 1761.072 316.775 1765.227 315.811 C 1767.304 315.328 1769.409 314.896 1771.502 314.524 C 1772.548 314.337 1773.606 314.163 1774.655 314.005 C 1775.695 313.847 1777.738 313.58 1777.775 313.575 Z M 1778.166 316.549 C 1777.823 316.594 1776.032 316.831 1775.104 316.971 C 1774.074 317.127 1773.055 317.294 1772.028 317.477 C 1769.974 317.843 1767.944 318.26 1765.905 318.733 C 1761.826 319.68 1757.819 320.829 1753.838 322.193 C 1745.876 324.92 1738.232 328.427 1730.981 332.715 L 1721.763 338.162 C 1721.299 338.436 1720.724 338.441 1720.257 338.174 C 1719.789 337.907 1719.5 337.41 1719.5 336.871 L 1719.5 322.5 L 1601.5 322.5 L 1601.5 768.5 L 1719.5 768.5 L 1719.5 650.174 C 1719.5 527.332 1719.775 517.472 1723.551 499.015 C 1728.791 473.648 1740.593 451.764 1755.585 439.577 C 1764.911 432.108 1770.991 430.132 1784.996 430.062 C 1803.525 430.09 1804.538 430.506 1835.498 453.818 L 1859.502 471.907 L 1859.256 401.828 L 1859.004 329.775 L 1845.489 324.881 C 1837.233 321.889 1827.114 319.006 1821.754 318.122 C 1809.822 316.134 1787.828 315.34 1778.185 316.547 C 1778.179 316.547 1778.173 316.548 1778.166 316.549 Z M 1269.87 341.74 C 1269.922 341.597 1269.996 341.46 1270.093 341.334 C 1270.159 341.271 1270.246 341.21 1270.355 341.15 C 1270.558 341.004 1270.797 340.909 1271.053 340.879 C 1274.244 339.94 1284.849 339.5 1310.38 339.5 L 1348.516 339.5 C 1349.051 339.5 1349.546 339.785 1349.814 340.249 L 1368.556 372.635 C 1378.87 390.457 1387.5 405.924 1387.5 406.922 C 1387.5 407.919 1378.867 423.417 1368.549 441.276 L 1349.799 473.731 C 1349.529 474.198 1349.03 474.484 1348.491 474.481 L 1310.097 474.24 L 1271.703 474 C 1271.171 473.997 1270.681 473.712 1270.414 473.252 L 1251.576 440.752 C 1241.204 422.858 1232.904 406.96 1233.144 405.564 C 1233.824 403.744 1269.637 342.14 1269.87 341.74 Z M 1272.526 343.092 C 1271.727 344.442 1262.455 360.132 1253.919 374.967 C 1244.99 390.483 1236.215 405.866 1235.963 406.59 C 1235.633 406.759 1243.822 421.392 1254.172 439.248 L 1272.579 471.005 L 1310.115 471.24 L 1347.637 471.476 L 1365.951 439.776 C 1376.259 421.935 1384.5 407.189 1384.5 406.922 C 1384.5 406.656 1376.262 391.941 1365.96 374.137 L 1347.651 342.5 L 1310.38 342.5 C 1282.199 342.5 1273.317 342.497 1272.526 343.092 Z M 314.56 356.514 C 314.566 356.509 314.572 356.504 314.578 356.5 L 321.566 351.165 C 321.887 350.919 322.294 350.814 322.694 350.873 C 323.094 350.932 323.454 351.15 323.691 351.477 L 326.278 355.049 C 334.942 367.099 360.352 383.263 409.175 407.857 C 473.509 440.277 507.366 462.702 533.842 490.405 C 555.835 513.482 571.689 543.652 577.466 573.415 C 582.624 600.273 580.412 634.462 571.798 660.965 C 570.311 665.52 567.429 672.544 564.834 678.293 C 563.535 681.171 562.29 683.77 561.326 685.59 C 560.838 686.509 560.39 687.287 560.045 687.791 C 559.858 688.065 559.619 688.366 559.428 688.541 C 559.294 688.665 558.98 688.876 558.749 688.953 C 558.379 689.076 557.552 688.807 557.119 688.573 C 556.65 687.974 555.188 683.299 553.915 678.261 C 548.88 658.17 537.301 640.888 521.724 628.178 C 506.147 615.468 486.926 607.615 466.296 606.764 L 454.158 606.238 C 453.431 606.206 452.832 605.657 452.736 604.936 L 452.074 599.944 C 450.301 585.886 439.255 570.753 422.628 559.549 C 414.264 553.882 388.216 539.449 351.802 520.303 C 290.378 488.001 261.88 469.436 237.139 445.63 C 220.874 429.947 210.409 414.928 202.376 395.745 C 198.567 386.617 193.563 368.898 192.139 359.502 L 191.502 355.281 C 191.412 354.688 191.685 354.099 192.194 353.782 C 192.704 353.466 193.353 353.484 193.844 353.828 L 200.298 358.339 C 209.158 364.548 221.834 370.275 233.169 373.194 C 244.136 376.045 262.752 376.721 273.397 374.653 C 280.698 373.254 288.141 370.865 295.25 367.73 C 298.804 366.163 302.215 364.435 305.477 362.542 C 307.107 361.597 308.672 360.627 310.199 359.613 C 310.962 359.107 311.701 358.599 312.435 358.078 C 313.08 357.619 314.28 356.723 314.56 356.514 Z M 316.316 358.943 C 316.258 358.986 313.408 361.085 311.858 362.113 C 310.292 363.152 308.651 364.17 306.982 365.137 C 303.647 367.072 300.088 368.876 296.46 370.475 C 289.207 373.674 281.439 376.155 273.963 377.599 C 262.982 379.693 243.706 378.997 232.419 376.098 C 220.841 373.095 207.68 367.144 198.58 360.797 L 194.99 358.288 L 195.105 359.054 C 196.489 368.266 201.395 385.631 205.144 394.589 C 213.023 413.492 223.146 428.009 239.22 443.47 C 263.738 467.098 291.894 485.417 353.198 517.647 C 389.642 536.809 415.832 551.328 424.31 557.065 C 441.309 568.629 453.001 584.808 455.048 599.55 L 455.545 603.295 L 466.426 603.766 C 487.556 604.727 507.702 612.865 523.62 625.854 C 539.538 638.843 551.583 656.969 556.823 677.525 C 557.516 680.268 558.15 682.703 558.596 684.334 C 558.622 684.285 558.648 684.235 558.675 684.185 C 559.611 682.419 560.815 679.905 562.1 677.058 C 564.673 671.357 567.498 664.485 568.946 660.035 C 577.488 633.9 579.654 600.461 574.52 573.983 C 568.889 544.634 553.423 515.216 531.672 492.477 C 505.454 464.988 472.007 442.867 407.825 410.537 C 358.87 385.867 332.92 369.243 323.848 356.809 L 322.163 354.483 L 316.398 358.884 C 316.371 358.905 316.344 358.924 316.316 358.943 Z M 559.233 686.449 C 559.236 686.452 559.238 686.453 559.24 686.452 C 559.238 686.451 559.236 686.45 559.233 686.449 Z M 811.803 423.983 C 811.81 423.981 811.817 423.98 811.824 423.978 C 811.835 423.976 811.845 423.974 811.855 423.972 C 821.339 422.19 842.35 422.783 850.892 425.076 C 863.689 428.574 871.705 433.403 882.067 443.866 C 897.195 459.248 905.018 475.588 909.52 501.254 C 911.966 515.343 912.455 545.444 910.527 563.163 C 904.956 613.612 884.475 649.396 853.798 662.419 C 842.426 667.161 831.752 668.811 816.035 668.242 C 800.732 667.661 792.783 665.71 781.305 659.734 C 761.224 649.157 745.303 628.351 739.326 604.866 C 737.134 596.095 737.016 593.81 737.008 554.5 C 737.001 510.338 737.6 502.962 742.275 488.073 C 747.694 470.971 755.903 457.956 769.271 445.27 C 775.377 439.499 781.662 434.963 788.545 431.522 C 791.985 429.802 795.645 428.319 799.491 427.078 C 801.412 426.458 803.417 425.887 805.466 425.373 C 806.49 425.116 807.542 424.87 808.602 424.637 C 809.651 424.407 811.765 423.99 811.803 423.983 Z M 812.385 426.925 C 812.028 426.996 810.179 427.363 809.244 427.568 C 808.206 427.795 807.198 428.032 806.196 428.283 C 804.193 428.785 802.284 429.329 800.412 429.933 C 796.67 431.14 793.221 432.538 789.886 434.205 C 783.218 437.539 777.285 441.805 771.333 447.448 C 758.203 459.846 750.394 472.223 745.137 488.975 C 740.526 503.532 739.997 510.456 740.008 554.5 C 740.014 593.742 740.088 595.661 742.236 604.134 C 747.949 627.073 763.11 646.917 782.695 657.076 C 793.835 662.924 801.144 664.705 816.145 665.244 C 831.58 665.829 841.618 664.295 852.638 659.653 C 882.591 647.27 902.162 612.707 907.545 562.837 C 909.465 545.306 908.988 515.625 906.564 501.77 C 902.186 476.492 894.775 460.948 879.933 445.974 C 869.863 435.741 862.521 431.306 850.108 427.972 C 841.913 425.73 821.561 425.163 812.405 426.922 C 812.399 426.923 812.392 426.924 812.385 426.925 Z M 1271.51 502.995 C 1271.556 502.918 1271.608 502.843 1271.669 502.773 C 1271.671 502.771 1271.673 502.768 1271.676 502.766 C 1271.758 502.672 1271.852 502.588 1271.954 502.518 C 1273.995 500.868 1278.819 500.501 1310.641 500.5 L 1346.972 500.5 C 1347.481 500.5 1347.956 500.758 1348.232 501.186 L 1350.653 504.936 C 1355.847 512.984 1409.5 603.479 1409.5 604.573 C 1409.5 605.356 1400.261 621.746 1389.205 640.912 L 1369.111 675.749 C 1368.843 676.214 1368.348 676.5 1367.812 676.5 L 1251.287 676.5 C 1250.751 676.5 1250.255 676.214 1249.987 675.749 L 1230.343 641.669 C 1219.536 622.918 1210.5 606.802 1210.5 605.941 C 1210.5 605.014 1225.381 579.699 1240.32 554.593 C 1255.073 529.8 1271.113 503.644 1271.51 502.995 Z M 1274.075 504.551 C 1273.771 505.03 1269.293 512.106 1263.697 521.379 C 1257.898 530.987 1250.366 543.577 1242.898 556.127 C 1227.963 581.227 1213.5 605.774 1213.5 605.941 C 1213.5 606.068 1222.144 621.434 1232.943 640.171 L 1252.154 673.5 L 1366.946 673.5 L 1386.607 639.414 C 1397.655 620.26 1406.5 604.618 1406.5 604.573 C 1406.5 604.245 1353.297 514.562 1348.133 506.564 L 1346.155 503.5 L 1310.641 503.5 C 1278.843 503.499 1275.087 503.391 1274.075 504.551 Z M 189.5 655.246 C 189.5 617.88 189.521 598.242 189.751 588.129 C 189.866 583.051 190.041 580.263 190.299 578.861 C 190.451 578.034 190.863 577.137 191.357 576.804 C 191.773 576.523 192.625 576.487 192.978 576.618 C 193.257 576.722 193.578 576.956 193.737 577.091 C 223.023 602.696 250.921 626.131 256.143 629.51 C 281.539 646.018 330.925 660.431 362.254 660.48 C 364.405 660.486 366.387 660.544 367.817 660.633 C 368.54 660.678 369.169 660.735 369.601 660.797 C 369.833 660.83 370.092 660.88 370.263 660.93 C 370.377 660.963 370.59 661.046 370.719 661.122 C 370.954 661.26 371.5 661.957 371.5 662.463 C 371.5 662.972 370.526 665.68 369.448 668.418 C 355.668 703.05 363.69 743.06 389.835 770.115 L 396.225 776.77 C 396.625 777.187 396.75 777.796 396.547 778.336 C 396.344 778.877 395.849 779.253 395.274 779.303 L 386.453 780.075 C 369.398 781.563 337.525 780.836 320.304 778.566 C 289.442 774.488 254.173 766.425 233.582 758.744 C 220.893 754 214.173 750.558 201.015 742.061 L 190.186 735.062 C 189.758 734.785 189.5 734.311 189.5 733.802 Z M 192.5 655.246 L 192.5 732.985 L 202.643 739.541 C 215.671 747.964 222.101 751.26 234.632 755.934 C 255.033 763.557 289.972 771.538 320.696 775.592 C 337.755 777.85 369.302 778.569 386.191 777.087 L 391.891 776.588 L 387.671 772.193 C 361.138 744.394 352.802 702.794 366.656 667.318 C 367.235 665.851 367.729 664.543 368.06 663.656 C 367.925 663.646 367.782 663.637 367.63 663.627 C 366.25 663.541 364.357 663.485 362.246 663.48 C 330.501 663.371 280.303 648.716 254.511 632.028 C 249.222 628.592 221.92 605.686 193.099 580.517 C 192.95 581.981 192.837 584.371 192.75 588.197 C 192.521 598.278 192.5 617.881 192.5 655.246 Z M 1086.302 643.922 C 1086.302 643.922 1086.301 643.924 1086.299 643.927 C 1086.299 643.927 1086.299 643.927 1086.299 643.927 C 1086.299 643.927 1086.299 643.927 1086.299 643.927 C 1086.299 643.927 1086.299 643.927 1086.299 643.927 C 1085.886 644.644 1084.969 644.89 1084.252 644.477 C 1083.535 644.064 1083.287 643.149 1083.698 642.432 C 1083.698 642.432 1083.698 642.432 1083.698 642.432 C 1083.699 642.431 1083.699 642.431 1083.699 642.43 C 1083.699 642.43 1083.7 642.429 1083.7 642.428 L 1102.2 610.285 C 1102.468 609.82 1102.963 609.533 1103.5 609.533 L 1180.5 609.533 C 1181.037 609.533 1181.532 609.82 1181.8 610.285 L 1200.3 642.429 C 1210.483 660.121 1219 675.688 1219 676.939 C 1219 678.189 1210.483 693.777 1200.301 711.495 L 1181.801 743.684 C 1181.533 744.15 1181.037 744.437 1180.5 744.437 L 1103.5 744.437 C 1102.963 744.437 1102.467 744.15 1102.199 743.684 L 1083.699 711.495 C 1073.517 693.777 1065 678.189 1065 676.939 C 1065 676.149 1067.257 671.767 1070.619 665.632 C 1072.298 662.568 1074.297 658.976 1076.51 655.049 C 1077.617 653.085 1078.778 651.035 1079.98 648.924 C 1080.582 647.869 1081.193 646.798 1081.814 645.714 C 1082.433 644.634 1083.692 642.443 1083.698 642.432 C 1083.699 642.431 1083.699 642.431 1083.699 642.43 C 1083.699 642.43 1083.699 642.43 1083.699 642.43 C 1083.699 642.43 1083.7 642.429 1083.7 642.429 L 1083.7 642.428 C 1084.113 641.712 1085.028 641.464 1085.745 641.875 C 1086.464 642.287 1086.713 643.203 1086.302 643.922 Z M 1086.299 643.927 C 1086.299 643.927 1086.299 643.927 1086.299 643.927 C 1086.299 643.927 1086.299 643.927 1086.299 643.927 C 1086.237 644.035 1085.021 646.151 1084.417 647.205 C 1083.798 648.287 1083.187 649.355 1082.587 650.409 C 1081.387 652.517 1080.228 654.561 1079.124 656.521 C 1076.914 660.442 1074.924 664.019 1073.25 667.074 C 1069.905 673.178 1068 676.838 1068 676.939 C 1068 677.469 1076.133 692.309 1086.301 710.001 L 1104.368 741.437 L 1179.632 741.437 L 1197.7 710.001 C 1207.867 692.309 1216 677.469 1216 676.939 C 1216 676.408 1207.867 661.59 1197.7 643.925 L 1179.633 612.533 L 1104.367 612.533 L 1086.3 643.925 C 1086.3 643.926 1086.3 643.926 1086.299 643.927 C 1086.299 643.927 1086.299 643.927 1086.299 643.927 Z M 1418.699 642.492 C 1418.699 642.492 1418.699 642.492 1418.7 642.491 C 1418.7 642.491 1418.7 642.491 1418.7 642.49 L 1437.2 610.308 C 1437.467 609.843 1437.962 609.556 1438.499 609.556 L 1515.513 609.5 C 1516.049 609.5 1516.545 609.786 1516.813 610.25 L 1535.613 642.839 C 1545.961 660.778 1554.361 676.568 1554.265 677.813 C 1554.009 678.738 1545.478 693.953 1535.3 711.626 L 1516.8 743.747 C 1516.53 744.215 1516.03 744.501 1515.49 744.498 L 1476.993 744.249 L 1438.495 744 C 1437.963 743.997 1437.472 743.711 1437.206 743.25 L 1418.434 710.75 C 1408.102 692.862 1399.7 677.204 1399.779 676.082 C 1399.923 675.623 1402.144 671.563 1405.549 665.536 C 1407.251 662.524 1409.267 658.975 1411.493 655.074 C 1412.606 653.124 1413.771 651.084 1414.977 648.98 C 1415.579 647.927 1416.192 646.859 1416.813 645.776 C 1417.434 644.694 1418.699 642.492 1418.699 642.492 C 1418.699 642.492 1418.699 642.492 1418.699 642.492 Z M 1421.3 643.987 C 1421.263 644.052 1420.026 646.204 1419.415 647.269 C 1418.794 648.351 1418.182 649.419 1417.58 650.471 C 1416.375 652.574 1415.211 654.611 1414.098 656.561 C 1411.874 660.459 1409.861 664.002 1408.161 667.012 C 1404.762 673.028 1402.687 676.726 1402.682 676.837 C 1402.473 676.872 1410.714 691.388 1421.032 709.25 L 1439.374 741.006 L 1477.013 741.249 L 1514.636 741.492 L 1532.7 710.128 C 1542.871 692.469 1551.255 677.635 1551.346 677.121 C 1551.587 676.945 1543.345 662.246 1533.015 644.338 L 1514.648 612.501 L 1439.368 612.555 L 1421.3 643.987 C 1421.3 643.987 1421.3 643.987 1421.3 643.987 Z M 1759.653 829.752 C 1759.649 829.748 1759.645 829.743 1759.641 829.739 L 1753.721 822.989 C 1753.333 822.546 1753.24 821.917 1753.483 821.381 C 1753.726 820.845 1754.26 820.5 1754.849 820.5 L 2329 820.5 C 2329.828 820.5 2330.5 821.172 2330.5 822 L 2330.5 924 C 2330.5 924.828 2329.828 925.5 2329 925.5 L 1879.5 925.5 L 1879.5 1025 C 1879.5 1025.828 1878.828 1026.5 1878 1026.5 L 1846 1026.5 C 1845.172 1026.5 1844.5 1025.828 1844.5 1025 L 1844.5 925.5 L 1814.5 925.5 C 1805.019 925.5 1797.122 925.406 1791.601 925.242 C 1788.836 925.159 1786.638 925.058 1785.142 924.942 C 1784.383 924.883 1783.751 924.815 1783.327 924.743 C 1783.094 924.704 1782.826 924.643 1782.651 924.582 C 1782.531 924.54 1782.302 924.432 1782.169 924.338 C 1781.94 924.176 1781.5 923.511 1781.5 923.062 C 1781.5 922.401 1782.175 918.974 1782.964 915.481 C 1787.698 894.738 1784.77 871.722 1774.909 852.173 C 1772.643 847.654 1770.634 844.12 1768.275 840.655 C 1767.095 838.921 1765.848 837.233 1764.429 835.444 C 1763.719 834.549 1762.977 833.641 1762.18 832.693 C 1761.447 831.819 1759.897 830.033 1759.653 829.752 Z M 1761.893 827.757 C 1761.898 827.762 1761.903 827.768 1761.907 827.773 C 1761.911 827.777 1761.914 827.781 1761.918 827.786 C 1761.943 827.814 1763.675 829.807 1764.477 830.763 C 1765.287 831.727 1766.056 832.667 1766.78 833.58 C 1768.23 835.409 1769.543 837.185 1770.755 838.967 C 1773.182 842.533 1775.287 846.24 1777.591 850.827 C 1787.598 870.86 1790.65 894.88 1785.89 916.143 C 1785.367 918.456 1784.92 920.611 1784.683 921.891 C 1784.887 921.911 1785.116 921.931 1785.374 921.951 C 1786.824 922.064 1788.949 922.162 1791.691 922.243 C 1797.184 922.407 1805.037 922.5 1814.5 922.5 L 1846 922.5 C 1846.828 922.5 1847.5 923.172 1847.5 924 L 1847.5 1023.5 L 1876.5 1023.5 L 1876.5 924 C 1876.5 923.172 1877.172 922.5 1878 922.5 L 2327.5 922.5 L 2327.5 823.5 L 1758.16 823.5 Z M 970.247 871.25 C 970.247 871.25 970.247 871.25 970.247 871.25 C 970.247 871.25 970.247 871.25 970.247 871.25 C 1046.283 871.109 1109.942 870.884 1111.723 870.75 C 1112.664 870.682 1113.58 870.563 1114.238 870.658 C 1114.684 870.722 1115.507 871.134 1115.797 871.653 C 1116.058 872.119 1116.058 872.969 1115.905 873.461 C 1115.478 874.828 1113.599 877.563 1109.988 882.998 C 1106.852 887.716 1102.978 894.663 1101.365 898.462 C 1091.609 921.249 1091.128 948.893 1100.083 972.08 C 1100.137 972.512 1100.086 973.354 1099.823 973.675 C 1099.655 973.88 1099.303 974.115 1099.108 974.2 C 1098.843 974.316 1098.409 974.425 1097.98 974.494 C 1097.195 974.621 1095.918 974.732 1094.09 974.826 C 1090.466 975.012 1084.409 975.149 1074.819 975.248 C 1055.65 975.447 1022.261 975.5 965.607 975.5 L 832 975.5 C 831.172 975.5 830.5 974.828 830.5 974 L 830.5 873.007 C 830.5 872.18 831.17 871.509 831.997 871.507 Z M 970.253 874.25 L 833.5 874.504 L 833.5 972.5 L 965.607 972.5 C 1022.258 972.5 1055.632 972.448 1074.788 972.248 C 1084.359 972.149 1090.355 972.013 1093.936 971.83 C 1095.148 971.768 1096.051 971.703 1096.718 971.633 C 1088.253 948.184 1088.939 920.139 1098.605 897.288 C 1100.288 893.345 1104.292 886.156 1107.49 881.338 C 1110.121 877.377 1111.703 875.042 1112.484 873.699 C 1112.32 873.713 1112.14 873.727 1111.944 873.742 C 1110.051 873.88 1046.291 874.109 970.253 874.25 Z M 1286.011 917.025 C 1286.007 917.013 1286.004 917.001 1286.001 916.989 C 1285.901 916.566 1285.827 915.856 1285.993 915.392 C 1286.111 915.063 1286.568 914.531 1286.927 914.365 C 1287.222 914.229 1287.751 914.174 1288.046 914.213 C 1288.797 914.312 1290.045 914.954 1291.706 916.044 C 1294.935 918.165 1300.801 922.544 1311.015 930.298 L 1334.001 947.748 L 1574.81 946.29 L 1583.737 938.513 C 1588.89 934.023 1593.678 930.099 1594.318 929.824 C 1594.943 929.84 1595.778 930.001 1596.026 930.219 C 1596.195 930.367 1596.412 930.61 1596.584 930.831 C 1596.901 931.238 1597.31 931.852 1597.74 932.557 C 1598.587 933.948 1599.659 935.917 1600.726 938.077 C 1614.395 965.963 1640.895 986.031 1670.535 990.939 L 1677.639 992.136 C 1678.21 992.232 1678.675 992.649 1678.833 993.206 C 1678.991 993.763 1678.814 994.362 1678.378 994.743 L 1646.783 1022.425 L 1615.188 1050.106 C 1614.918 1050.343 1614.571 1050.475 1614.211 1050.478 L 1474.861 1051.475 C 1398.218 1052.024 1327.405 1052.473 1317.5 1052.473 L 1299.5 1052.473 C 1299.172 1052.473 1298.854 1052.366 1298.593 1052.168 L 1274.831 1034.125 L 1251.07 1016.083 C 1250.724 1015.82 1250.509 1015.42 1250.48 1014.986 C 1250.452 1014.553 1250.613 1014.128 1250.921 1013.822 L 1258.693 1006.122 C 1275.546 989.491 1285.274 969.055 1287.406 945.804 C 1287.823 941.377 1287.856 935.708 1287.591 930.319 C 1287.458 927.626 1287.252 925.048 1286.98 922.737 C 1286.844 921.584 1286.695 920.525 1286.529 919.547 C 1286.394 918.751 1286.11 917.468 1286.011 917.025 Z M 1289.255 918.034 C 1289.49 919.282 1289.799 921.029 1289.959 922.386 C 1290.238 924.753 1290.452 927.433 1290.587 930.171 C 1290.857 935.644 1290.817 941.526 1290.392 946.084 C 1288.122 969.839 1277.956 991.201 1260.805 1008.254 L 1254.26 1014.738 L 1276.645 1031.735 L 1300.005 1049.473 L 1317.5 1049.473 C 1327.395 1049.473 1398.198 1049.024 1474.839 1048.475 L 1613.631 1047.482 L 1644.807 1020.169 L 1674.025 994.569 L 1670.037 993.897 C 1639.741 988.707 1612.145 967.823 1598.036 939.405 C 1596.997 937.298 1595.988 935.446 1595.178 934.118 C 1594.957 933.754 1594.761 933.448 1594.589 933.192 C 1593.145 934.357 1589.698 937.298 1585.707 940.775 L 1576.361 948.918 C 1576.091 949.154 1575.744 949.285 1575.385 949.287 L 1333.509 950.751 C 1333.178 950.753 1332.856 950.646 1332.593 950.446 L 1309.201 932.688 C 1298.996 924.94 1293.213 920.623 1290.059 918.552 C 1289.757 918.354 1289.491 918.182 1289.255 918.034 Z M 1939.709 926.579 C 1939.749 926.572 1939.789 926.565 1939.829 926.561 C 1951.16 925.283 1961.975 926.597 1970.923 930.141 C 1979.898 933.697 1987.354 939.7 1991.995 947.367 C 1996.622 955.177 1998.482 963.367 1998.5 976.147 L 1998.5 986.873 C 1998.5 987.646 1997.913 988.292 1997.144 988.366 L 1993.894 988.68 L 1991.954 988.867 L 1990.999 1016.552 C 1990.98 1017.102 1990.661 1017.598 1990.168 1017.843 L 1983.667 1021.073 C 1973.997 1025.854 1966.23 1027.607 1952.06 1028.188 C 1930.826 1028.994 1917.845 1024.827 1906.372 1013.58 C 1896.83 1004.036 1892.5 992.971 1892.5 977.661 C 1892.5 963.79 1896.606 953.367 1905.676 943.777 C 1910.507 938.725 1915.704 934.751 1921.294 931.932 C 1924.091 930.522 1927.073 929.356 1930.135 928.471 C 1931.665 928.029 1933.262 927.643 1934.867 927.328 C 1936.453 927.016 1939.636 926.589 1939.709 926.579 Z M 1940.144 929.544 C 1939.795 929.588 1938.461 929.757 1937.777 929.863 C 1936.985 929.985 1936.218 930.119 1935.447 930.271 C 1933.904 930.575 1932.433 930.93 1930.967 931.353 C 1928.037 932.2 1925.316 933.264 1922.645 934.611 C 1917.3 937.306 1912.502 940.953 1907.846 945.847 C 1899.09 954.945 1895.5 964.334 1895.5 977.661 C 1895.5 992.431 1899.286 1002.43 1908.484 1011.448 C 1919.355 1022.331 1931.22 1026.066 1951.94 1025.19 C 1965.842 1024.645 1973.001 1023.048 1982.333 1018.387 L 1988.032 1015.555 L 1988.936 989.322 C 1988.408 989.757 1987.796 990.205 1987.182 990.62 C 1985.532 991.736 1983.249 993.223 1980.752 994.8 C 1969.666 1001.769 1961.566 1004.5 1951.654 1004.5 C 1943.154 1004.5 1938.4 1003.291 1933.557 1000.031 C 1931.851 998.836 1929.803 996.572 1928.292 994.393 C 1927.533 993.299 1926.84 992.135 1926.36 991.127 C 1925.878 990.111 1925.653 988.805 1925.645 988.759 C 1925.598 988.66 1925.561 988.554 1925.536 988.444 C 1925.41 987.888 1925.614 987.304 1926.057 986.947 C 1926.134 986.844 1926.211 986.763 1926.285 986.714 C 1926.471 986.593 1926.78 986.465 1926.999 986.4 C 1927.365 986.291 1927.923 986.191 1928.555 986.115 C 1929.776 985.969 1931.641 985.85 1934.154 985.76 C 1939.159 985.58 1946.936 985.5 1958 985.5 C 1966.529 985.5 1974.289 985.546 1979.914 985.621 C 1982.728 985.658 1985.018 985.703 1986.601 985.752 C 1987.396 985.777 1988.032 985.804 1988.464 985.832 C 1988.687 985.846 1988.893 985.864 1989.032 985.882 C 1989.116 985.892 1989.249 985.915 1989.336 985.938 C 1989.407 985.956 1989.577 986.015 1989.68 986.069 C 1989.716 986.087 1989.761 986.121 1989.812 986.167 C 1989.977 986.081 1990.161 986.026 1990.356 986.007 L 1993.606 985.694 L 1995.5 985.511 L 1995.5 976.147 C 1995.518 963.695 1993.872 956.275 1989.421 948.907 C 1985.132 941.643 1978.387 936.325 1969.818 932.931 C 1961.221 929.525 1951.147 928.262 1940.171 929.541 C 1940.162 929.542 1940.153 929.543 1940.144 929.544 Z M 2040.807 926.542 C 2040.815 926.541 2040.822 926.541 2040.829 926.54 C 2040.839 926.539 2040.848 926.538 2040.858 926.537 C 2044.972 926.126 2048.443 925.75 2048.619 925.697 C 2051.031 925.131 2068.426 927.975 2072.911 929.638 C 2084.008 933.901 2091.997 943.777 2094.386 956.201 C 2095.035 959.763 2095.5 975.343 2095.5 993.684 L 2095.5 1025 C 2095.5 1025.828 2094.828 1026.5 2094 1026.5 L 2078 1026.5 C 2071.453 1026.5 2067.388 1026.435 2064.968 1026.222 C 2063.717 1026.113 2062.732 1025.935 2062.121 1025.698 C 2061.748 1025.554 2061.281 1025.259 2061.039 1024.992 C 2060.913 1024.852 2060.797 1024.652 2060.705 1024.437 C 2060.025 1024.593 2058.964 1024.961 2057.286 1025.604 C 2049.623 1028.498 2033.378 1029.25 2024.892 1027.104 C 2012.778 1023.939 2002.602 1016.564 1999.481 1008.733 C 1997.061 1002.29 1996.654 995.178 1998.123 988.93 C 1999.595 982.669 2003.083 976.837 2007.973 972.9 C 2016.431 966.265 2025.252 963.503 2046.323 960.981 C 2052.912 960.196 2058.005 959.598 2059.433 959.42 C 2059.385 958.992 2059.293 958.49 2059.149 957.924 C 2058.754 956.045 2057.886 955.104 2056.004 954.284 C 2054.008 953.415 2051.217 953.06 2047.07 953.151 C 2037.48 953.299 2030.926 955.833 2019.185 963.874 C 2014.043 967.385 2009.196 970.5 2008.509 970.5 C 2008.041 970.5 2007.367 970.017 2007.224 969.796 C 2007.147 969.677 2007.06 969.476 2007.03 969.382 C 2006.99 969.257 2006.948 969.066 2006.926 968.925 C 2006.886 968.679 2006.848 968.315 2006.816 967.905 C 2006.753 967.103 2006.697 965.941 2006.65 964.538 C 2006.558 961.74 2006.5 957.875 2006.5 953.639 L 2006.5 938.278 C 2006.5 937.688 2006.846 937.153 2007.383 936.911 L 2015.133 933.414 C 2019.777 931.32 2023.673 929.84 2027.643 928.779 C 2029.629 928.248 2031.676 927.81 2033.831 927.449 C 2034.908 927.268 2036.033 927.103 2037.195 926.953 C 2038.345 926.804 2040.766 926.547 2040.807 926.542 Z M 2041.126 929.525 C 2040.726 929.568 2038.606 929.796 2037.579 929.928 C 2036.443 930.075 2035.374 930.232 2034.327 930.408 C 2032.238 930.758 2030.33 931.166 2028.418 931.677 C 2024.594 932.7 2020.925 934.089 2016.367 936.148 L 2009.5 939.247 L 2009.5 953.639 C 2009.5 957.852 2009.557 961.668 2009.649 964.438 C 2009.677 965.278 2009.707 966.012 2009.74 966.629 C 2011.29 965.581 2014.155 963.676 2017.493 961.396 C 2029.544 953.193 2036.914 950.399 2047.01 950.151 C 2051.372 950.072 2054.817 950.495 2057.202 951.534 C 2059.702 952.622 2061.362 954.72 2062.059 957.194 C 2062.245 957.945 2062.385 958.732 2062.438 959.315 C 2062.497 959.949 2062.239 960.933 2061.907 961.531 C 2061.277 961.929 2054.393 963.04 2046.677 963.959 C 2025.872 966.425 2017.805 968.875 2009.835 975.252 C 2005.307 978.774 2002.413 983.788 2001.043 989.616 C 1999.67 995.457 1999.961 1001.676 2002.283 1007.663 C 2004.876 1014.81 2014.024 1021.267 2025.638 1024.198 C 2033.682 1026.298 2049.017 1025.598 2056.214 1022.802 C 2058.356 1021.982 2059.849 1021.489 2060.785 1021.38 C 2061.375 1021.312 2062.229 1021.454 2062.674 1021.789 C 2063.009 1022.04 2063.26 1022.52 2063.393 1022.964 C 2063.749 1023.068 2064.297 1023.152 2065.23 1023.234 C 2067.543 1023.437 2071.478 1023.5 2078 1023.5 L 2092.5 1023.5 L 2092.5 993.684 C 2092.5 975.387 2092.061 960.079 2091.436 956.747 C 2089.355 944.991 2082.316 936.249 2071.859 932.448 C 2067.654 930.859 2051.166 928.061 2049.382 928.599 C 2048.999 928.691 2045.282 929.11 2041.149 929.523 C 2041.141 929.523 2041.134 929.524 2041.126 929.525 Z M 2155.636 926.604 C 2155.689 926.592 2155.744 926.582 2155.8 926.576 C 2159.441 926.173 2163.676 925.978 2165.173 926.142 C 2174.997 927.288 2177.793 927.973 2183.21 930.52 C 2186.543 932.102 2190.087 934.312 2191.028 935.386 C 2191.831 936.395 2191.829 936.443 2192.454 936.338 C 2193.339 936.189 2194.614 935.442 2197.166 933.732 C 2204.646 928.777 2213.788 926.37 2225.5 926.37 C 2242.726 926.37 2254.516 931.655 2261.911 942.435 C 2267.564 950.976 2268.494 957.752 2268.5 993.447 L 2268.5 1025 C 2268.5 1025.828 2267.828 1026.5 2267 1026.5 L 2235 1026.5 C 2234.172 1026.5 2233.5 1025.828 2233.5 1025 L 2233.5 993.52 C 2233.5 973.82 2233.399 963.806 2231.922 958.541 C 2231.228 956.068 2230.472 955.029 2229.097 954.251 C 2227.686 953.452 2225.833 953.175 2223.01 952.866 C 2216.803 952.051 2211.485 954.975 2207.791 961.202 L 2204.996 965.768 L 2204.366 1025.016 C 2204.357 1025.838 2203.688 1026.5 2202.866 1026.5 L 2172 1026.5 C 2171.172 1026.5 2170.5 1025.829 2170.5 1025 L 2170.494 994.75 C 2170.491 977.226 2170.087 963.175 2169.52 961.215 C 2168.443 956.817 2164.979 954.184 2160.614 953.084 C 2156.232 951.98 2151.557 952.641 2147.853 955.896 C 2141.596 960.928 2141.535 962.286 2141.522 995.251 L 2141.5 1025.001 C 2141.499 1025.829 2140.828 1026.5 2140 1026.5 L 2107.981 1026.5 C 2107.582 1026.5 2107.199 1026.341 2106.917 1026.058 C 2106.636 1025.775 2106.479 1025.391 2106.481 1024.992 L 2106.74 977.242 L 2107 929.492 C 2107.004 928.677 2107.659 928.014 2108.474 928 L 2124.224 927.725 C 2131.019 927.606 2135.029 927.59 2137.332 927.772 C 2138.539 927.868 2139.507 928.06 2140.09 928.336 C 2140.855 928.699 2141.418 929.651 2141.492 930.329 C 2142.15 930.172 2143.226 929.761 2145.015 929.013 C 2146.154 928.543 2147.973 928.019 2149.895 927.588 C 2151.786 927.163 2155.544 926.617 2155.636 926.604 Z M 2156.099 929.561 C 2155.668 929.618 2154.191 929.814 2153.381 929.954 C 2152.424 930.119 2151.474 930.308 2150.552 930.515 C 2148.713 930.928 2147.143 931.369 2146.171 931.781 C 2143.753 932.79 2142.077 933.389 2141.031 933.404 C 2140.306 933.414 2139.309 932.941 2138.94 932.361 C 2138.701 931.988 2138.573 931.445 2138.524 930.95 C 2138.248 930.879 2137.822 930.821 2137.095 930.763 C 2134.916 930.59 2131.051 930.606 2124.276 930.725 L 2109.992 930.974 L 2109.74 977.258 L 2109.489 1023.5 L 2138.501 1023.5 L 2138.522 995.249 C 2138.557 962.034 2139.152 959.53 2145.921 953.6 C 2150.35 950.012 2156.387 948.925 2161.347 950.175 C 2166.323 951.429 2170.832 955.25 2172.41 960.413 C 2173.031 962.729 2173.491 977.18 2173.494 994.75 L 2173.5 1023.5 L 2201.382 1023.5 L 2202 965.322 C 2202.003 965.051 2202.079 964.786 2202.221 964.555 L 2205.233 959.636 C 2209.491 952.873 2216.251 949.241 2223.338 949.884 C 2226.22 950.201 2228.698 950.578 2230.575 951.64 C 2232.487 952.723 2233.974 954.751 2234.81 957.731 C 2236.393 963.372 2236.5 973.804 2236.5 993.52 L 2236.5 1023.5 L 2265.5 1023.5 L 2265.5 993.447 C 2265.506 957.94 2264.832 952.002 2259.423 944.111 C 2252.67 933.867 2242.124 929.37 2225.5 929.37 C 2214.164 929.37 2205.856 931.475 2198.834 936.226 C 2196.205 937.984 2194.361 939.06 2192.95 939.296 C 2191.278 939.577 2189.803 938.572 2188.717 937.299 C 2188.149 936.549 2185.119 934.738 2181.926 933.232 C 2176.799 930.787 2174.473 930.236 2164.827 929.122 C 2163.575 928.966 2159.679 929.163 2156.132 929.558 C 2156.121 929.559 2156.11 929.56 2156.099 929.561 Z M 1941.429 950.776 C 1941.595 950.645 1941.791 950.547 1942.01 950.495 C 1949.902 948.7 1957.58 950.685 1962.128 955.664 C 1963.494 957.22 1964.626 958.55 1965.133 959.608 C 1965.43 960.226 1965.6 961.189 1965.391 961.839 C 1965.18 962.499 1964.424 963.219 1963.731 963.522 C 1961.603 964.453 1956.294 964.5 1946.5 964.5 C 1941.677 964.5 1937.279 964.439 1934.095 964.342 C 1932.498 964.293 1931.182 964.234 1930.273 964.169 C 1929.81 964.135 1929.409 964.096 1929.137 964.056 C 1928.984 964.034 1928.79 963.995 1928.662 963.957 C 1928.568 963.929 1928.371 963.851 1928.254 963.78 C 1928.028 963.645 1927.5 962.957 1927.5 962.465 C 1927.5 960.429 1929.875 957.537 1932.627 955.372 C 1935.33 953.245 1941.332 950.815 1941.429 950.776 Z M 1942.64 953.427 C 1942.176 953.565 1941.234 953.851 1940.714 954.059 C 1940.002 954.343 1939.31 954.668 1938.584 955.054 C 1937.127 955.827 1935.747 956.734 1934.482 957.729 C 1932.803 959.05 1931.589 960.243 1930.969 961.208 C 1931.797 961.258 1932.881 961.304 1934.186 961.343 C 1937.346 961.44 1941.698 961.5 1946.5 961.5 C 1956.014 961.5 1960.682 961.47 1962.39 960.829 C 1962.025 960.121 1961.178 959.128 1959.874 957.644 C 1956.086 953.129 1949.884 951.614 1942.706 953.413 C 1942.684 953.418 1942.662 953.423 1942.64 953.427 Z M 2049.538 984.034 C 2049.547 984.033 2049.556 984.032 2049.565 984.03 C 2049.577 984.029 2049.588 984.027 2049.6 984.026 C 2055.495 983.311 2060.641 982.681 2061.036 982.623 C 2061.588 982.662 2062.435 982.922 2062.741 983.277 C 2062.978 983.553 2063.199 984.044 2063.289 984.387 C 2063.443 984.975 2063.499 985.849 2063.465 986.682 C 2063.397 988.294 2062.988 990.462 2062.336 992.217 C 2060.916 995.83 2058.142 999.059 2054.74 1001.157 C 2051.353 1003.246 2047 1004.5 2042.587 1004.5 C 2037.805 1004.5 2034.205 1003.752 2032.133 1002.004 C 2029.989 1000.195 2029.288 997.012 2029.682 993.201 C 2030.103 990.732 2031.934 988.489 2035.199 987.11 C 2036.763 986.45 2038.777 985.861 2041.148 985.361 C 2042.327 985.112 2043.633 984.875 2045.034 984.654 C 2046.42 984.436 2049.487 984.041 2049.538 984.034 Z M 2049.923 987.008 C 2049.42 987.074 2046.738 987.423 2045.5 987.618 C 2044.134 987.833 2042.905 988.056 2041.768 988.296 C 2039.509 988.773 2037.771 989.281 2036.366 989.874 C 2033.692 991.004 2032.71 991.903 2032.662 993.541 C 2032.242 996.855 2032.617 998.487 2034.068 999.711 C 2035.591 1000.996 2038.106 1001.5 2042.587 1001.5 C 2046.584 1001.5 2050.122 1000.481 2053.165 998.604 C 2056.192 996.736 2058.386 994.308 2059.53 991.154 C 2060.109 989.661 2060.409 987.961 2060.467 986.557 C 2060.481 986.221 2060.482 985.948 2060.469 985.72 C 2058.622 985.95 2054.505 986.453 2049.952 987.005 C 2049.943 987.006 2049.933 987.007 2049.923 987.008 Z M 1928.787 989.109 C 1928.873 989.371 1928.969 989.626 1929.07 989.84 C 1929.489 990.721 1930.057 991.675 1930.757 992.684 C 1932.164 994.713 1933.818 996.6 1935.253 997.557 C 1939.604 1000.597 1943.51 1001.5 1951.654 1001.5 C 1961.09 1001.5 1968.39 999.077 1979.152 992.262 C 1981.226 990.953 1983.134 989.717 1984.656 988.702 C 1983.326 988.672 1981.717 988.645 1979.874 988.621 C 1974.261 988.546 1966.521 988.5 1958 988.5 C 1946.952 988.5 1939.229 988.579 1934.262 988.758 C 1931.789 988.847 1930.05 988.957 1928.913 989.094 C 1928.87 989.099 1928.828 989.104 1928.787 989.109 Z" style="fill: rgb(43, 0, 255);"/></svg>